<?xml version="1.0"?>
<svg xmlns="http://www.w3.org/2000/svg" xmlns:xlink="http://www.w3.org/1999/xlink" xmlns:svgjs="http://svgjs.com/svgjs"
    version="1.1" width="512" height="512" x="0" y="0" viewBox="0 0 512 512" style="enable-background:new 0 0 512 512"
    xml:space="preserve">
    <g>
        <g xmlns="http://www.w3.org/2000/svg">
            <path
                d="m497 0h-90c-8.284 0-15 6.716-15 15s6.716 15 15 15h75v75c0 8.284 6.716 15 15 15s15-6.716 15-15v-90c0-8.284-6.716-15-15-15z"
                fill="#ffffff" data-original="#000000" style="" />
            <path
                d="m105 0h-90c-8.284 0-15 6.716-15 15v90c0 8.284 6.716 15 15 15s15-6.716 15-15v-75h75c8.284 0 15-6.716 15-15s-6.716-15-15-15z"
                fill="#ffffff" data-original="#000000" style="" />
            <path
                d="m105 482h-75v-75c0-8.284-6.716-15-15-15s-15 6.716-15 15v90c0 8.284 6.716 15 15 15h90c8.284 0 15-6.716 15-15s-6.716-15-15-15z"
                fill="#ffffff" data-original="#000000" style="" />
            <path
                d="m497 392c-8.284 0-15 6.716-15 15v75h-75c-8.284 0-15 6.716-15 15s6.716 15 15 15h90c8.284 0 15-6.716 15-15v-90c0-8.284-6.716-15-15-15z"
                fill="#ffffff" data-original="#000000" style="" />
            <path
                d="m316 241h-45v-45c0-8.284-6.716-15-15-15s-15 6.716-15 15v45h-45c-8.284 0-15 6.716-15 15s6.716 15 15 15h45v45c0 8.284 6.716 15 15 15s15-6.716 15-15v-45h45c8.284 0 15-6.716 15-15s-6.716-15-15-15z"
                fill="#ffffff" data-original="#000000" style="" />
        </g>
    </g>
</svg>